Simulation
nRows=42
nColumns=15
endheader
time  TH_x TH_y TH_z SC_y  SC_z  SC_x  AC_y  AC_z  AC_x  GH_y  GH_z  GH_yy  EL_x  PS_y
0.0  0.000000  0.000000  0.000000  -27.549367437425982  3.597081448993115  1.680564610871407  53.20248184076513  12.588248310730467  5.589003041452322  5.874951652366904  6.019649945008987  42.64424624344872  16.063819641208024  120.000000
0.027999999999999973  0.000000  0.000000  0.000000  -26.79643441167869  3.951021122006903  1.5005957031949992  52.60228609327893  12.3566820863686  5.577030281514035  7.891332531335131  6.824208149582404  40.41815945186098  15.534680115037347  120.000000
0.055999999999999946  0.000000  0.000000  0.000000  -25.87532771564311  4.338357632116967  1.251401293666814  52.01492311451524  12.055621247221724  5.582925952163643  9.421252415427608  7.574157741928965  38.554700319542675  15.03187195616388  120.000000
0.08399999999999992  0.000000  0.000000  0.000000  -25.082599972889252  4.6648997426498715  1.0158702080292275  51.47675291840931  11.733939402810883  5.5873909846782395  10.653564035720809  8.313498069839802  36.88495919411114  14.550871396155742  120.000000
0.11199999999999989  0.000000  0.000000  0.000000  -24.472897424134455  4.924467402032455  0.8155340178117116  51.02360040201902  11.429701928718147  5.568471252041869  11.65404314893581  9.077763970734946  35.36595516539272  14.091848013553406  120.000000
0.13999999999999987  0.000000  0.000000  0.000000  -24.05763153182176  5.112490308101827  0.674043844695478  50.661830454417334  11.161714346183857  5.526756671443412  12.387633364145213  9.888808302471396  34.0548803787801  13.656417720233792  120.000000
0.16799999999999984  0.000000  0.000000  0.000000  -23.81267333498784  5.235882498663158  0.5981160876402928  50.389878920254596  10.940053109761513  5.467585960973166  12.855855162804637  10.766436656552244  32.965416328995104  13.249335288033425  120.000000
0.1959999999999998  0.000000  0.000000  0.000000  -23.6806865794368  5.3198691022803635  0.5851966822736259  50.19692867359683  10.763789440903675  5.394645773443036  13.057410370609505  11.723662944351167  32.106874461830195  12.875341019053389  120.000000
0.22399999999999978  0.000000  0.000000  0.000000  -23.630043633846782  5.378850407856775  0.6353094166180785  50.06719296993804  10.630827219808511  5.312533071956658  13.009546792365297  12.772708141407836  31.46440346231092  12.539724465394077  120.000000
0.2519999999999998  0.000000  0.000000  0.000000  -23.619367921304523  5.439362250541747  0.7454135411645477  49.98134429865168  10.534033392703387  5.2243480602619545  12.739970537439982  13.919827503803322  31.006806046893676  12.245706049055984  120.000000
0.27999999999999975  0.000000  0.000000  0.000000  -23.629879426653922  5.513324059864992  0.9177111785145948  49.92095337795974  10.468673459861995  5.134071785776883  12.29122152737416  15.1679377146712  30.686146676565883  11.996335568630725  120.000000
0.3079999999999997  0.000000  0.000000  0.000000  -23.648326879380345  5.61408960844585  1.1538585127525276  49.87412107673576  10.428603678350955  5.042069698989787  11.728420136390676  16.513596105512487  30.427688491405668  11.792241242438433  120.000000
0.3359999999999997  0.000000  0.000000  0.000000  -23.66981911051406  5.74626122242227  1.455918355940922  49.83413188517173  10.410058643833947  4.946995034299881  11.117870801835233  17.94707631281323  30.154474040206885  11.633037600380945  120.000000
0.36399999999999966  0.000000  0.000000  0.000000  -23.70364582279933  5.906243976558307  1.827234676385962  49.7970206837512  10.410180277081809  4.847598854616944  10.519719711383418  19.45349433417576  29.79405692345993  11.515240120984465  120.000000
0.3919999999999996  0.000000  0.000000  0.000000  -23.754942820376936  6.091204387029764  2.2692457409764577  49.762635186962996  10.42921794959381  4.740029984754263  9.980806754002588  21.013514785549777  29.288101215248226  11.433738342592298  120.000000
0.4199999999999996  0.000000  0.000000  0.000000  -23.839868347790464  6.292658448127088  2.783560727872332  49.73375634128776  10.47069133642219  4.6215914252493215  9.532502229716075  22.608916803916834  28.597106623029102  11.381401003693808  120.000000
0.44799999999999957  0.000000  0.000000  0.000000  -23.9642281401593  6.50469438471748  3.3705923645347196  49.71306892226359  10.537819412788659  4.489303916504162  9.18668934094381  24.220836684381762  27.70625870781768  11.349514784073238  120.000000
0.47599999999999953  0.000000  0.000000  0.000000  -24.135793048503203  6.717289821934276  4.029813330219087  49.70413002302144  10.63408441472924  4.343545624269755  8.942053955093565  25.83579738372459  26.621925614253236  11.328477494193503  120.000000
0.5039999999999996  0.000000  0.000000  0.000000  -24.353222719800122  6.924596524528591  4.760307607073281  49.710335947955826  10.760178709837371  4.185652674328333  8.788054647266076  27.442346481271603  25.36831737297407  11.30864547598756  120.000000
0.5319999999999995  0.000000  0.000000  0.000000  -24.612079305615154  7.121690788549331  5.5561888088698295  49.73450320072573  10.915620844222198  4.018584797636264  8.706987731381474  29.034560808976064  23.982796025756873  11.280542532022778  120.000000
0.5599999999999995  0.000000  0.000000  0.000000  -24.9059079153109  7.304041319893016  6.412380030945622  49.77774092822173  11.09532956695226  3.8461761019534775  8.678480057179675  30.606166145875676  22.51050672749895  11.236652259840264  120.000000
0.5879999999999994  0.000000  0.000000  0.000000  -25.22482185789499  7.468657351323966  7.315486886822054  49.83985912098556  11.293271622144989  3.6723944978840994  8.682138803303115  32.15374795925409  20.995913843444875  11.171788534838193  120.000000
0.6159999999999994  0.000000  0.000000  0.000000  -25.560125298309377  7.612127048170784  8.255947688122882  49.92009921313155  11.49953422163734  3.500697722077628  8.70057367471194  33.67082906738758  19.480198558487285  11.085671934170891  120.000000
0.6439999999999994  0.000000  0.000000  0.000000  -25.901326074177508  7.7332327630764075  9.217586271720714  50.01541188621936  11.705731380631873  3.3358988542219907  8.719463974952625  35.1542552565281  17.99565749183055  10.981982676404774  120.000000
0.6719999999999994  0.000000  0.000000  0.000000  -26.24044780376578  7.8315697835346665  10.191831890238044  50.12223693818106  11.903111421694927  3.1819410715976697  8.725997234114306  36.60075038903374  16.568950023040728  10.868202702453857  120.000000
0.6999999999999993  0.000000  0.000000  0.000000  -26.571180046999476  7.914077940397589  11.169645150321818  50.23641999632287  12.08739076000069  3.042160419146709  8.708892584817677  38.01197315081784  15.218398272403048  10.752419344282785  120.000000
0.7279999999999993  0.000000  0.000000  0.000000  -26.889173098614283  7.9860696136069205  12.148103581376786  50.353391692016345  12.257146185488164  2.919230491439272  8.656812877849388  39.39108052803787  13.958632604294598  10.642514114501989  120.000000
0.7559999999999992  0.000000  0.000000  0.000000  -27.193079330663583  8.055343439691253  13.12333214722746  50.46919164961287  12.410956635396419  2.816312080067871  8.5627907795792  40.739183764206786  12.797443245920746  10.545201728283107  120.000000
0.7839999999999993  0.000000  0.000000  0.000000  -27.48005028783745  8.123817746472374  14.09214187591392  50.580306007526545  12.545818219021019  2.7370716194228635  8.423409219777076  42.05347609146016  11.739587611854839  10.466338807648428  120.000000
0.8119999999999992  0.000000  0.000000  0.000000  -27.749499136854283  8.193241451055732  15.050561933090227  50.685124276046466  12.658955374306192  2.684565608796117  8.23999086516151  43.32926854779113  10.785582029667655  10.409784162400793  120.000000
0.8399999999999992  0.000000  0.000000  0.000000  -27.999905963129592  8.265132334449344  15.994751511157602  50.78281859008418  12.749737831894643  2.6611802088383403  8.015278567121047  44.56160529088959  9.935847780296521  10.37761426593764  120.000000
0.8679999999999991  0.000000  0.000000  0.000000  -28.234746234253517  8.34180607346843  16.923242527495155  50.872948489127175  12.81864933861657  2.6693289170876584  7.753206887646942  45.747527664514045  9.189862407989628  10.369682345710864  120.000000
0.8959999999999991  0.000000  0.000000  0.000000  -28.455871757588696  8.425311838018025  17.836163823064375  50.955021600291694  12.866191493340668  2.7102514001430125  7.456792099099336  46.88634392502992  8.5481859194049  10.384179598233331  120.000000
0.9239999999999992  0.000000  0.000000  0.000000  -28.670433363083397  8.518079415370382  18.738153616479647  51.029662107451045  12.89164854208114  2.7852849966941204  7.130220793122272  47.9779671724076  8.010160759613907  10.418344156742798  120.000000
0.9519999999999991  0.000000  0.000000  0.000000  -28.88193762464885  8.621830358407648  19.632169592838792  51.09731889174847  12.894008344527013  2.895196761426412  6.776439113141657  49.02351828976957  7.575421898630698  10.469038651632953  120.000000
0.9799999999999991  0.000000  0.000000  0.000000  -29.097871036751915  8.73799778178897  20.52311745593355  51.16012667236952  12.871651061251445  3.040876943669028  6.398787336648614  50.02187946957926  7.241711619316247  10.533850323204693  120.000000
1.0079999999999991  0.000000  0.000000  0.000000  -29.321789256125236  8.866602433059013  21.412751164599886  51.21990957815866  12.823325515161374  3.222977612939155  5.998732728690064  50.97112435454711  7.004990157029378  10.611954845794132  120.000000
1.035999999999999  0.000000  0.000000  0.000000  -29.560761333526155  9.006941126411977  22.306592406790102  51.279493223121875  12.748922985377835  3.441827433279157  5.577343871512721  51.86694187375757  6.857537270829605  10.705447121356928  120.000000
1.063999999999999  0.000000  0.000000  0.000000  -29.816921562573537  9.15791226098651  23.20718110496463  51.34112506152128  12.651620058403408  3.6977511432457435  5.134393771787774  52.70393855127023  6.7871712458469675  10.820005596092214  120.000000
1.091999999999999  0.000000  0.000000  0.000000  -30.092257051462212  9.315210888763493  24.11847958059231  51.40675042963996  12.53564252304189  3.9918946033691665  4.670078723734504  53.47405171928519  6.778314781020278  10.96506940134552  120.000000
1.119999999999999  0.000000  0.000000  0.000000  -30.383327207390924  9.473790172765755  25.041256415921584  51.47805392740279  12.402370670040575  4.323005252208706  4.185866217084252  54.16726118821595  6.812326204210758  11.152077302585987  120.000000
1.1479999999999988  0.000000  0.000000  0.000000  -30.684802507393016  9.626179427049749  25.978842899376225  51.55490693982084  12.25089496768706  4.68676743913912  3.684697673579318  54.77471034464638  6.8714308416632734  11.39043442302973  120.000000
